<mxfile host="app.diagrams.net" modified="2022-12-10T03:51:06.140Z" agent="5.0 (Windows NT 10.0; Win64; x64) AppleWebKit/537.36 (KHTML, like Gecko) Chrome/108.0.0.0 Safari/537.36" version="20.6.2" etag="XsWU2l16PO9iQBemoUbc" type="github">
  <diagram id="tAsXrHp3L7zEOZPpcuN6" name="第 1 页">
    <mxGraphModel dx="1422" dy="762" grid="1" gridSize="10" guides="1" tooltips="1" connect="1" arrows="1" fold="1" page="1" pageScale="1" pageWidth="827" pageHeight="1169" math="0" shadow="0">
      <root>
        <mxCell id="0" />
        <mxCell id="1" parent="0" />
        <mxCell id="vLFFSeFfdxi8zpwwEDJ2-10" style="edgeStyle=orthogonalEdgeStyle;rounded=0;orthogonalLoop=1;jettySize=auto;html=1;exitX=1;exitY=0.5;exitDx=0;exitDy=0;entryX=0;entryY=0.5;entryDx=0;entryDy=0;fontSize=18;" edge="1" parent="1" source="vLFFSeFfdxi8zpwwEDJ2-1" target="vLFFSeFfdxi8zpwwEDJ2-2">
          <mxGeometry relative="1" as="geometry" />
        </mxCell>
        <mxCell id="vLFFSeFfdxi8zpwwEDJ2-11" value="动作a" style="edgeLabel;html=1;align=center;verticalAlign=middle;resizable=0;points=[];fontSize=18;" vertex="1" connectable="0" parent="vLFFSeFfdxi8zpwwEDJ2-10">
          <mxGeometry x="0.1273" y="-4" relative="1" as="geometry">
            <mxPoint as="offset" />
          </mxGeometry>
        </mxCell>
        <mxCell id="vLFFSeFfdxi8zpwwEDJ2-1" value="&lt;font style=&quot;font-size: 18px;&quot;&gt;Agent&lt;/font&gt;" style="rounded=0;whiteSpace=wrap;html=1;" vertex="1" parent="1">
          <mxGeometry x="130" y="260" width="120" height="60" as="geometry" />
        </mxCell>
        <mxCell id="vLFFSeFfdxi8zpwwEDJ2-8" value="状态s" style="edgeStyle=orthogonalEdgeStyle;rounded=0;orthogonalLoop=1;jettySize=auto;html=1;exitX=0.5;exitY=0;exitDx=0;exitDy=0;entryX=0.5;entryY=0;entryDx=0;entryDy=0;fontSize=18;" edge="1" parent="1" source="vLFFSeFfdxi8zpwwEDJ2-2" target="vLFFSeFfdxi8zpwwEDJ2-1">
          <mxGeometry relative="1" as="geometry" />
        </mxCell>
        <mxCell id="vLFFSeFfdxi8zpwwEDJ2-9" value="奖励值r" style="edgeStyle=orthogonalEdgeStyle;rounded=0;orthogonalLoop=1;jettySize=auto;html=1;exitX=0.5;exitY=1;exitDx=0;exitDy=0;entryX=0.5;entryY=1;entryDx=0;entryDy=0;fontSize=18;" edge="1" parent="1" source="vLFFSeFfdxi8zpwwEDJ2-2" target="vLFFSeFfdxi8zpwwEDJ2-1">
          <mxGeometry relative="1" as="geometry" />
        </mxCell>
        <mxCell id="vLFFSeFfdxi8zpwwEDJ2-2" value="&lt;font style=&quot;font-size: 18px;&quot;&gt;环境&lt;/font&gt;" style="ellipse;whiteSpace=wrap;html=1;" vertex="1" parent="1">
          <mxGeometry x="470" y="250" width="210" height="80" as="geometry" />
        </mxCell>
        <mxCell id="vLFFSeFfdxi8zpwwEDJ2-14" value="状态s&#39;" style="curved=1;endArrow=classic;html=1;rounded=0;fontSize=18;exitX=1;exitY=1;exitDx=0;exitDy=0;entryX=1;entryY=0;entryDx=0;entryDy=0;" edge="1" parent="1" source="vLFFSeFfdxi8zpwwEDJ2-2" target="vLFFSeFfdxi8zpwwEDJ2-2">
          <mxGeometry width="50" height="50" relative="1" as="geometry">
            <mxPoint x="740" y="320" as="sourcePoint" />
            <mxPoint x="790" y="270" as="targetPoint" />
            <Array as="points">
              <mxPoint x="730" y="310" />
              <mxPoint x="730" y="260" />
            </Array>
          </mxGeometry>
        </mxCell>
      </root>
    </mxGraphModel>
  </diagram>
</mxfile>
